<?xml version="1.0" encoding="UTF-8"?>
<svg width="24px" height="24px" viewBox="0 0 24 24" version="1.1" xmlns="http://www.w3.org/2000/svg" xmlns:xlink="http://www.w3.org/1999/xlink">
    <!-- Generator: Sketch 47 (45396) - http://www.bohemiancoding.com/sketch -->
    <title>ic_fill_brightness_32</title>
    <desc>Created with Sketch.</desc>
    <defs></defs>
    <g id="Page-1" stroke="none" stroke-width="1" fill="none" fill-rule="evenodd">
        <g id="ic_fill_brightness_32" fill="#999999">
            <g>
                <path d="M12,17.25 C9.10050506,17.25 6.75,14.8994949 6.75,12 C6.75,9.10050506 9.10050506,6.75 12,6.75 C14.8994949,6.75 17.25,9.10050506 17.25,12 C17.25,14.8994949 14.8994949,17.25 12,17.25 Z M10.5,4.25 L10.5,1 C10.5,0.44771525 10.9477153,0 11.5,0 L12.5,0 C13.0522847,0 13.5,0.44771525 13.5,1 L13.5,4.25 C13.5,4.80228475 13.0522847,5.25 12.5,5.25 L11.5,5.25 C10.9477153,5.25 10.5,4.80228475 10.5,4.25 Z M10.5,23 L10.5,19.75 C10.5,19.1977153 10.9477153,18.75 11.5,18.75 L12.5,18.75 C13.0522847,18.75 13.5,19.1977153 13.5,19.75 L13.5,23 C13.5,23.5522847 13.0522847,24 12.5,24 L11.5,24 C10.9477153,24 10.5,23.5522847 10.5,23 Z M1,10.5 L4.25,10.5 C4.80228475,10.5 5.25,10.9477153 5.25,11.5 L5.25,12.5 C5.25,13.0522847 4.80228475,13.5 4.25,13.5 L1,13.5 C0.44771525,13.5 6.76353751e-17,13.0522847 0,12.5 L0,11.5 C-6.76353751e-17,10.9477153 0.44771525,10.5 1,10.5 L1,10.5 Z M19.75,10.5 L23,10.5 C23.5522847,10.5 24,10.9477153 24,11.5 L24,12.5 C24,13.0522847 23.5522847,13.5 23,13.5 L19.75,13.5 C19.1977153,13.5 18.75,13.0522847 18.75,12.5 L18.75,11.5 C18.75,10.9477153 19.1977153,10.5 19.75,10.5 Z M3.16116524,18.7175144 L5.45926227,16.4194174 C5.84978657,16.0288931 6.48295154,16.0288931 6.87347584,16.4194174 L7.58058262,17.1265242 C7.97110691,17.5170485 7.97110691,18.1502134 7.58058262,18.5407377 L5.28248558,20.8388348 C4.89196129,21.2293591 4.25879631,21.2293591 3.86827202,20.8388348 L3.16116524,20.131728 C2.77064094,19.7412037 2.77064094,19.1080387 3.16116524,18.7175144 Z M16.4194174,5.45926227 L18.7175144,3.16116524 C19.1080387,2.77064094 19.7412037,2.77064094 20.131728,3.16116524 L20.8388348,3.86827202 C21.2293591,4.25879631 21.2293591,4.89196129 20.8388348,5.28248558 L18.5407377,7.58058262 C18.1502134,7.97110691 17.5170485,7.97110691 17.1265242,7.58058262 L16.4194174,6.87347584 C16.0288931,6.48295154 16.0288931,5.84978657 16.4194174,5.45926227 L16.4194174,5.45926227 Z M18.7175144,20.8388348 L16.4194174,18.5407377 C16.0288931,18.1502134 16.0288931,17.5170485 16.4194174,17.1265242 L17.1265242,16.4194174 C17.5170485,16.0288931 18.1502134,16.0288931 18.5407377,16.4194174 L20.8388348,18.7175144 C21.2293591,19.1080387 21.2293591,19.7412037 20.8388348,20.131728 L20.131728,20.8388348 C19.7412037,21.2293591 19.1080387,21.2293591 18.7175144,20.8388348 Z M5.45926227,7.58058262 L3.16116524,5.28248558 C2.77064094,4.89196129 2.77064094,4.25879631 3.16116524,3.86827202 L3.86827202,3.16116524 C4.25879631,2.77064094 4.89196129,2.77064094 5.28248558,3.16116524 L7.58058262,5.45926227 C7.97110691,5.84978657 7.97110691,6.48295154 7.58058262,6.87347584 L6.87347584,7.58058262 C6.48295154,7.97110691 5.84978657,7.97110691 5.45926227,7.58058262 L5.45926227,7.58058262 Z" fill-rule="nonzero"></path>
            </g>
        </g>
    </g>
</svg>