<?xml version="1.0" encoding="UTF-8"?>
<svg width="24px" height="24px" viewBox="0 0 24 24" version="1.1" xmlns="http://www.w3.org/2000/svg" xmlns:xlink="http://www.w3.org/1999/xlink">
    <!-- Generator: Sketch 47 (45396) - http://www.bohemiancoding.com/sketch -->
    <title>ic_fill_door_closed_32</title>
    <desc>Created with Sketch.</desc>
    <defs></defs>
    <g id="Page-1" stroke="none" stroke-width="1" fill="none" fill-rule="evenodd">
        <g id="ic_fill_door_closed_32" fill-rule="nonzero" fill="#999999">
            <path d="M20.25,22.5 L20.25,22.5 C20.6642136,22.5 21,22.8357864 21,23.25 C21,23.6642136 20.6642136,24 20.25,24 L3.75,24 C3.33578644,24 3,23.6642136 3,23.25 C3,22.8357864 3.33578644,22.5 3.75,22.5 L3.75,22.5 L4.5,22.5 L4.5,2 C4.5,0.8954305 5.3954305,2.02906125e-16 6.5,0 L6.5,0 L17.5,0 C18.6045695,-2.02906125e-16 19.5,0.8954305 19.5,2 L19.5,2 L19.5,22.5 L20.25,22.5 Z M15.75,9.75 C15.3357864,9.75 15,10.0857864 15,10.5 L15,13.5 C15,13.9142136 15.3357864,14.25 15.75,14.25 C16.1642136,14.25 16.5,13.9142136 16.5,13.5 L16.5,10.5 C16.5,10.0857864 16.1642136,9.75 15.75,9.75 Z" id="ic_ol_door_closed_32"></path>
        </g>
    </g>
</svg>