<?xml version="1.0" encoding="UTF-8"?>
<svg width="24px" height="24px" viewBox="0 0 24 24" version="1.1" xmlns="http://www.w3.org/2000/svg" xmlns:xlink="http://www.w3.org/1999/xlink">
    <!-- Generator: Sketch 47 (45396) - http://www.bohemiancoding.com/sketch -->
    <title>ic_fill_door_opened_32</title>
    <desc>Created with Sketch.</desc>
    <defs></defs>
    <g id="Page-1" stroke="none" stroke-width="1" fill="none" fill-rule="evenodd">
        <g id="ic_fill_door_opened_32" fill="#999999">
            <g transform="translate(3.000000, 0.000000)">
                <path d="M3.33870968,20.2494754 L0.74998057,20.2494754 L0.74998057,20.2494754 C0.335777739,20.2494754 -5.07252172e-17,20.5852531 0,20.999456 L0,20.999456 L0,20.999456 C5.07252172e-17,21.4136588 0.335777739,21.7494365 0.74998057,21.7494365 L3.33870968,21.7494365 L3.33870968,20.2494754 Z" id="Combined-Shape"></path>
                <path d="M17.056471,20.2494754 L11.8709677,20.2494754 L11.8709677,21.7494365 L17.056471,21.7494365 L17.056471,21.7494365 C17.4706739,21.7494365 17.8064516,21.4136588 17.8064516,20.999456 L17.8064516,20.999456 L17.8064516,20.999456 C17.8064516,20.5852531 17.4706739,20.2494754 17.056471,20.2494754 Z" id="Shape"></path>
                <path d="M2.96774194,1.49996114 L14.8387097,1.49996114 L14.8387097,21.7494365 L16.3225806,21.7494365 L16.3225806,2 L16.3225806,2 C16.3225806,0.8954305 15.4271501,-2.02906125e-16 14.3225806,0 L3.48387097,0 L3.48387097,0 C2.37930147,2.02906125e-16 1.48387097,0.8954305 1.48387097,2 L1.48387097,21.7494365 L2.96774194,21.7494365 L2.96774194,1.49996114 Z" id="Shape"></path>
                <path d="M1.48387097,20.135544 L1.48387097,1.72554226 C1.48387097,1.31133943 1.8160468,0.975561692 2.22580645,0.975561692 C2.28879002,0.975561692 2.35151724,0.983668621 2.41247477,0.99968689 L11.5023689,3.38830697 C12.1563638,3.56016213 12.6129032,4.15695886 12.6129032,4.84001771 L12.6129032,23.2500194 C12.6129032,23.6642223 12.2807274,24 11.8709677,24 C11.8079842,24 11.7452569,23.9918931 11.6842994,23.9758748 L2.5944053,21.5872547 C1.94041044,21.4153996 1.48387097,20.8186028 1.48387097,20.135544 Z M8.90322581,11.2497086 C8.49346615,11.2497086 8.16129032,11.5818844 8.16129032,11.991644 L8.16129032,15.0076565 C8.16129032,15.4174161 8.49346615,15.749592 8.90322581,15.749592 C9.31298546,15.749592 9.64516129,15.4174161 9.64516129,15.0076565 L9.64516129,11.991644 C9.64516129,11.5818844 9.31298546,11.2497086 8.90322581,11.2497086 Z" id="Combined-Shape"></path>
            </g>
        </g>
    </g>
</svg>