<?xml version="1.0" encoding="UTF-8"?>
<svg width="24px" height="24px" viewBox="0 0 24 24" version="1.1" xmlns="http://www.w3.org/2000/svg" xmlns:xlink="http://www.w3.org/1999/xlink">
    <!-- Generator: Sketch 47.1 (45422) - http://www.bohemiancoding.com/sketch -->
    <title>ic_fill_folder_open_24</title>
    <desc>Created with Sketch.</desc>
    <defs></defs>
    <g id="Page-1" stroke="none" stroke-width="1" fill="none" fill-rule="evenodd">
        <path d="M10.5,3.75 L21,3.75 C21.8284271,3.75 22.5,4.42157288 22.5,5.25 L22.5,6.75 L1.5,6.75 L1.5,3.75 L1.5,2.25 C1.5,1.422 2.172,0.75 3,0.75 L9,0.75 C9.828,0.75 10.5,1.422 10.5,2.25 L10.5,3.75 Z M0.837948762,9.75 L23.1620512,9.75 C23.5762648,9.75 23.9120512,10.0857864 23.9120512,10.5 C23.9120512,10.5276714 23.9105198,10.5553215 23.907464,10.5828236 L22.6930767,21.5123097 C22.6238628,22.1352345 22.5401789,22.3551492 22.4012312,22.5749174 C22.2622834,22.7946856 22.0737219,22.9634563 21.8399536,23.0772849 C21.6061854,23.1911135 21.3783744,23.25 20.7516161,23.25 L3.24838388,23.25 C2.62162564,23.25 2.39381463,23.1911135 2.16004639,23.0772849 C1.92627814,22.9634563 1.73771661,22.7946856 1.59876884,22.5749174 C1.45982107,22.3551492 1.37613717,22.1352345 1.3069233,21.5123097 L0.0925359605,10.5828236 C0.0467937247,10.1711435 0.343444995,9.80032943 0.755125117,9.7545872 C0.782627236,9.75153141 0.810277397,9.75 0.837948762,9.75 Z" id="Combined-Shape" fill="#999999"></path>
    </g>
</svg>