<?xml version="1.0" encoding="UTF-8"?>
<svg width="24px" height="24px" viewBox="0 0 24 24" version="1.1" xmlns="http://www.w3.org/2000/svg" xmlns:xlink="http://www.w3.org/1999/xlink">
    <!-- Generator: Sketch 47.1 (45422) - http://www.bohemiancoding.com/sketch -->
    <title>ic_fill_list_View_24</title>
    <desc>Created with Sketch.</desc>
    <defs></defs>
    <g id="Page-1" stroke="none" stroke-width="1" fill="none" fill-rule="evenodd">
        <g id="ic_fill_list_View_32" fill="#999999">
            <path d="M24,6.75 L6,6.75 L6,2.25 L24,2.25 L24,6.75 Z M3,6.75 L0,6.75 L0,2.25 L3,2.25 L3,6.75 Z M24,14.25 L6,14.25 L6,9.75 L24,9.75 L24,14.25 Z M3,14.25 L0,14.25 L0,9.75 L3,9.75 L3,14.25 Z M24,21.75 L6,21.75 L6,17.25 L24,17.25 L24,21.75 Z M3,21.75 L0,21.75 L0,17.25 L3,17.25 L3,21.75 Z" id="Combined-Shape"></path>
        </g>
    </g>
</svg>