<?xml version="1.0" encoding="UTF-8"?>
<svg width="24px" height="24px" viewBox="0 0 24 24" version="1.1" xmlns="http://www.w3.org/2000/svg" xmlns:xlink="http://www.w3.org/1999/xlink">
    <!-- Generator: Sketch 46.2 (44496) - http://www.bohemiancoding.com/sketch -->
    <title>ic_fill_Upload_32</title>
    <desc>Created with Sketch.</desc>
    <defs></defs>
    <g id="Page-1" stroke="none" stroke-width="1" fill="none" fill-rule="evenodd">
        <g id="ic_fill_Upload_32" fill="#999999">
            <g transform="translate(4.500000, 0.000000)" id="Combined-Shape">
                <path d="M2.8805625,8.41542612 C2.2213125,9.00089919 1.1536875,9.00089919 0.4944375,8.41542612 C-0.1648125,7.82995304 -0.1648125,6.88180637 0.4944375,6.2963333 L7.5841875,0 L14.6728125,6.2963333 C15.3320625,6.88180637 15.3320625,7.82995304 14.6728125,8.41542612 C14.3431875,8.70816265 13.9123125,8.85403137 13.4803125,8.85403137 C13.0483125,8.85403137 12.6163125,8.70816265 12.2866875,8.41542612 L9.2716875,5.73683685 L9.2716875,18.0057948 L5.8966875,18.0057948 L5.8966875,5.73683685 L2.8805625,8.41542612 Z M0,23.9990009 L0,21.0016985 L15.16725,21.0016985 L15.16725,23.9990009 L14.383125,23.9990009 L14.383125,24 L0.783,24 L0.783,23.9990009 L0,23.9990009 Z"></path>
            </g>
        </g>
    </g>
</svg>