<?xml version="1.0" encoding="UTF-8"?>
<svg width="24px" height="24px" viewBox="0 0 24 24" version="1.1" xmlns="http://www.w3.org/2000/svg" xmlns:xlink="http://www.w3.org/1999/xlink">
    <!-- Generator: Sketch 47 (45396) - http://www.bohemiancoding.com/sketch -->
    <title>ic_fill_volume_off_32</title>
    <desc>Created with Sketch.</desc>
    <defs></defs>
    <g id="Page-1" stroke="none" stroke-width="1" fill="none" fill-rule="evenodd">
        <g id="ic_fill_volume_off_32" fill="#999999" fill-rule="nonzero">
            <path d="M5.25,8.80972318 L5.25,15.3097232 L5.25,15.3097232 C5.25,16.4142927 6.1454305,17.3097232 7.25,17.3097232 L9.10463415,17.3097232 L17.1766378,22.9586561 L17.1766378,22.9586561 C17.6291258,23.2753153 18.2526428,23.1652043 18.569302,22.7127163 C18.686916,22.5446526 18.75,22.3444845 18.75,22.1393541 L18.75,1.98009227 L18.75,1.98009227 C18.75,1.42780752 18.3022847,0.980092274 17.75,0.980092274 C17.5448696,0.980092274 17.3447015,1.04317625 17.1766378,1.16079028 L9.10463415,6.80972318 L7.25,6.80972318 L7.25,6.80972318 C6.1454305,6.80972318 5.25,7.70515368 5.25,8.80972318 Z"></path>
        </g>
    </g>
</svg>