<?xml version="1.0" encoding="UTF-8"?>
<svg width="24px" height="24px" viewBox="0 0 24 24" version="1.1" xmlns="http://www.w3.org/2000/svg" xmlns:xlink="http://www.w3.org/1999/xlink">
    <!-- Generator: Sketch 47 (45396) - http://www.bohemiancoding.com/sketch -->
    <title>ic_fill_volume_down_32</title>
    <desc>Created with Sketch.</desc>
    <defs></defs>
    <g id="Page-1" stroke="none" stroke-width="1" fill="none" fill-rule="evenodd">
        <g id="ic_fill_volume_up_32" fill="#999999" fill-rule="nonzero">
            <path d="M19.5533009,6.7991218 C21.4465793,8.69240021 22.1837381,11.45542 21.494309,14.0434308 C21.1548977,15.316223 20.4866818,16.4723426 19.5533009,17.4057235 L17.4319805,15.2844032 C18.5668869,14.1494968 19.0176675,12.4895636 18.5987067,10.9356965 C18.3971813,10.1720212 17.9888271,9.47728874 17.4319805,8.92044215 L19.5533009,6.7991218 Z M3,8.80972318 C3,7.70515368 3.8954305,6.80972318 5,6.80972318 L5,6.80972318 L6.85463415,6.80972318 L14.9266378,1.16079028 C15.0947015,1.04317625 15.2948696,0.980092274 15.5,0.980092274 C16.0522847,0.980092274 16.5,1.42780752 16.5,1.98009227 L16.5,1.98009227 L16.5,22.1393541 C16.5,22.3444845 16.436916,22.5446526 16.319302,22.7127163 C16.0026428,23.1652043 15.3791258,23.2753153 14.9266378,22.9586561 L14.9266378,22.9586561 L6.85463415,17.3097232 L5,17.3097232 C3.8954305,17.3097232 3,16.4142927 3,15.3097232 L3,8.80972318 Z"></path>
        </g>
    </g>
</svg>