<?xml version="1.0" encoding="UTF-8"?>
<svg width="24px" height="24px" viewBox="0 0 24 24" version="1.1" xmlns="http://www.w3.org/2000/svg" xmlns:xlink="http://www.w3.org/1999/xlink">
    <!-- Generator: Sketch 47 (45396) - http://www.bohemiancoding.com/sketch -->
    <title>ic_fill_volume_up_32</title>
    <desc>Created with Sketch.</desc>
    <defs></defs>
    <g id="Page-1" stroke="none" stroke-width="1" fill="none" fill-rule="evenodd">
        <g id="ic_fill_volume_up_32" fill="#999999" fill-rule="nonzero">
            <path d="M20.2656115,3.0491218 C23.4847151,6.26822543 24.7415974,10.9616467 23.5642646,15.3633864 C22.9862048,17.5218298 21.8459951,19.4999611 20.2656115,21.0803447 L18.1442911,18.9590244 C20.6050227,16.4982928 21.5702235,12.9026548 20.6686623,9.54036206 C20.2231851,7.88573219 19.3534437,6.37959474 18.1442911,5.17044215 L20.2656115,3.0491218 Z M16.5533009,6.7991218 C18.4465793,8.69240021 19.1837381,11.45542 18.494309,14.0434308 C18.1548977,15.316223 17.4866818,16.4723426 16.5533009,17.4057235 L14.4319805,15.2844032 C15.5668869,14.1494968 16.0176675,12.4895636 15.5987067,10.9356965 C15.3971813,10.1720212 14.9888271,9.47728874 14.4319805,8.92044215 L16.5533009,6.7991218 Z M0,8.80972318 L-4.4408921e-16,8.80972318 C-5.7935996e-16,7.70515368 0.8954305,6.80972318 2,6.80972318 L2,6.80972318 L3.85463415,6.80972318 L11.9266378,1.16079028 C12.0947015,1.04317625 12.2948696,0.980092274 12.5,0.980092274 C13.0522847,0.980092274 13.5,1.42780752 13.5,1.98009227 L13.5,1.98009227 L13.5,22.1393541 C13.5,22.3444845 13.436916,22.5446526 13.319302,22.7127163 C13.0026428,23.1652043 12.3791258,23.2753153 11.9266378,22.9586561 L11.9266378,22.9586561 L3.85463415,17.3097232 L2,17.3097232 C0.8954305,17.3097232 -3.0881846e-16,16.4142927 -4.4408921e-16,15.3097232 L0,15.3097232 L0,8.80972318 Z"></path>
        </g>
    </g>
</svg>