<?xml version="1.0" encoding="UTF-8"?>
<svg width="24px" height="24px" viewBox="0 0 24 24" version="1.1" xmlns="http://www.w3.org/2000/svg" xmlns:xlink="http://www.w3.org/1999/xlink">
    <!-- Generator: Sketch 47 (45396) - http://www.bohemiancoding.com/sketch -->
    <title>ic_ol_brightness_32</title>
    <desc>Created with Sketch.</desc>
    <defs></defs>
    <g id="Page-1" stroke="none" stroke-width="1" fill="none" fill-rule="evenodd">
        <g id="ic_ol_brightness_32" fill="#999999">
            <g>
                <path d="M12,16.5 C14.4852814,16.5 16.5,14.4852814 16.5,12 C16.5,9.51471863 14.4852814,7.5 12,7.5 C9.51471863,7.5 7.5,9.51471863 7.5,12 C7.5,14.4852814 9.51471863,16.5 12,16.5 Z M12,18 C8.6862915,18 6,15.3137085 6,12 C6,8.6862915 8.6862915,6 12,6 C15.3137085,6 18,8.6862915 18,12 C18,15.3137085 15.3137085,18 12,18 Z M0.75,11.25 L3.75,11.25 C4.16421356,11.25 4.5,11.5857864 4.5,12 C4.5,12.4142136 4.16421356,12.75 3.75,12.75 L0.75,12.75 C0.335786438,12.75 5.07265313e-17,12.4142136 0,12 C-5.07265313e-17,11.5857864 0.335786438,11.25 0.75,11.25 L0.75,11.25 Z M20.25,11.25 L23.25,11.25 C23.6642136,11.25 24,11.5857864 24,12 C24,12.4142136 23.6642136,12.75 23.25,12.75 L20.25,12.75 C19.8357864,12.75 19.5,12.4142136 19.5,12 C19.5,11.5857864 19.8357864,11.25 20.25,11.25 Z M11.25,23.25 L11.25,20.25 C11.25,19.8357864 11.5857864,19.5 12,19.5 C12.4142136,19.5 12.75,19.8357864 12.75,20.25 L12.75,23.25 C12.75,23.6642136 12.4142136,24 12,24 C11.5857864,24 11.25,23.6642136 11.25,23.25 Z M11.25,3.75 L11.25,0.75 C11.25,0.335786438 11.5857864,0 12,0 C12.4142136,0 12.75,0.335786438 12.75,0.75 L12.75,3.75 C12.75,4.16421356 12.4142136,4.5 12,4.5 C11.5857864,4.5 11.25,4.16421356 11.25,3.75 Z M19.4246212,20.4852814 L17.3033009,18.363961 C17.0104076,18.0710678 17.0104076,17.5961941 17.3033009,17.3033009 C17.5961941,17.0104076 18.0710678,17.0104076 18.363961,17.3033009 L20.4852814,19.4246212 C20.7781746,19.7175144 20.7781746,20.1923882 20.4852814,20.4852814 C20.1923882,20.7781746 19.7175144,20.7781746 19.4246212,20.4852814 Z M5.63603897,6.69669914 L3.51471863,4.5753788 C3.22182541,4.28248558 3.22182541,3.80761184 3.51471863,3.51471863 C3.80761184,3.22182541 4.28248558,3.22182541 4.5753788,3.51471863 L6.69669914,5.63603897 C6.98959236,5.92893219 6.98959236,6.40380592 6.69669914,6.69669914 C6.40380592,6.98959236 5.92893219,6.98959236 5.63603897,6.69669914 Z M20.4852814,4.5753788 L18.363961,6.69669914 C18.0710678,6.98959236 17.5961941,6.98959236 17.3033009,6.69669914 C17.0104076,6.40380592 17.0104076,5.92893219 17.3033009,5.63603897 L19.4246212,3.51471863 C19.7175144,3.22182541 20.1923882,3.22182541 20.4852814,3.51471863 L20.4852814,3.51471863 L20.4852814,3.51471863 C20.7781746,3.80761184 20.7781746,4.28248558 20.4852814,4.5753788 Z M6.69669914,18.363961 L4.5753788,20.4852814 C4.28248558,20.7781746 3.80761184,20.7781746 3.51471863,20.4852814 C3.22182541,20.1923882 3.22182541,19.7175144 3.51471863,19.4246212 L5.63603897,17.3033009 C5.92893219,17.0104076 6.40380592,17.0104076 6.69669914,17.3033009 C6.98959236,17.5961941 6.98959236,18.0710678 6.69669914,18.363961 Z" fill-rule="nonzero"></path>
            </g>
        </g>
    </g>
</svg>