<?xml version="1.0" encoding="UTF-8"?>
<svg width="24px" height="24px" viewBox="0 0 24 24" version="1.1" xmlns="http://www.w3.org/2000/svg" xmlns:xlink="http://www.w3.org/1999/xlink">
    <!-- Generator: Sketch 47 (45396) - http://www.bohemiancoding.com/sketch -->
    <title>ic_ol_door_opened_32</title>
    <desc>Created with Sketch.</desc>
    <defs></defs>
    <g id="Page-1" stroke="none" stroke-width="1" fill="none" fill-rule="evenodd">
        <g id="ic_ol_door_opened_32" fill="#999999">
            <path d="M6.375,20.25 L3.75,20.25 L3.75,20.25 C3.33578644,20.25 3,20.5857864 3,21 L3,21 L3,21 C3,21.4142136 3.33578644,21.75 3.75,21.75 L6.375,21.75 L6.375,20.25 Z" fill-rule="nonzero"></path>
            <path d="M20.25,20.25 L15,20.25 L15,21.75 L20.25,21.75 L20.25,21.75 C20.6642136,21.75 21,21.4142136 21,21 L21,21 L21,21 C21,20.5857864 20.6642136,20.25 20.25,20.25 Z" id="Shape" fill-rule="evenodd"></path>
            <path d="M6,1.5 L18,1.5 L18,21.75 L19.5,21.75 L19.5,2 L19.5,2 C19.5,0.8954305 18.6045695,-2.02906125e-16 17.5,0 L6.5,0 L6.5,0 C5.3954305,2.02906125e-16 4.5,0.8954305 4.5,2 L4.5,21.75 L6,21.75 L6,1.5 Z" id="Shape" fill-rule="evenodd"></path>
            <path d="M4.5,20.1360656 L4.5,1.72558697 C4.5,1.3113734 4.83578644,0.975586966 5.25,0.975586966 C5.31366817,0.975586966 5.37707721,0.983694105 5.43869732,0.999712789 L14.6273946,3.38839475 C15.2884981,3.56025436 15.75,4.15706656 15.75,4.8401431 L15.75,23.2506218 C15.75,23.6648353 15.4142136,24.0006218 15,24.0006218 C14.9363318,24.0006218 14.8729228,23.9925146 14.8113027,23.9764959 L5.62260536,21.587814 C4.96150186,21.4159544 4.5,20.8191422 4.5,20.1360656 Z M14.25,4.8401431 L6,2.69548369 L6,20.1360656 L14.25,22.280725 L14.25,4.8401431 Z" id="Combined-Shape" fill-rule="evenodd"></path>
            <rect id="Rectangle-path" fill-rule="evenodd" x="11.25" y="11.25" width="1.5" height="4.5" rx="0.75"></rect>
        </g>
    </g>
</svg>