<?xml version="1.0" encoding="UTF-8"?>
<svg width="24px" height="24px" viewBox="0 0 24 24" version="1.1" xmlns="http://www.w3.org/2000/svg" xmlns:xlink="http://www.w3.org/1999/xlink">
    <!-- Generator: Sketch 47.1 (45422) - http://www.bohemiancoding.com/sketch -->
    <title>ic_ol_folder_open_24</title>
    <desc>Created with Sketch.</desc>
    <defs></defs>
    <g id="Page-1" stroke="none" stroke-width="1" fill="none" fill-rule="evenodd">
        <path d="M1.58315187,10.5 L2.7673624,21.75 L21.0665772,21.75 L22.2507877,10.5 L1.58315187,10.5 Z M0.750060823,9 L23.0838787,9 C23.4980923,9 23.8338787,9.33578644 23.8338787,9.75 C23.8338787,9.77622524 23.8325032,9.80243244 23.8297578,9.82851359 L22.5583353,21.9070272 C22.4779753,22.6704473 21.8342151,23.25 21.0665772,23.25 L2.7673624,23.25 C1.9997245,23.25 1.35596422,22.6704473 1.27560422,21.9070272 L0.00418173296,9.82851359 C-0.0391801246,9.41657594 0.259609588,9.04748277 0.671547234,9.00412091 C0.697628383,9.00137553 0.723835578,9 0.750060823,9 Z M20.9169698,5.25 L8.91696978,5.25 L8.91696978,2.25 L3.00485239,2.25 L3.00485239,7.5 L1.50485239,7.5 L1.50485239,2.25 C1.50485239,1.42157288 2.17642527,0.75 3.00485239,0.75 L8.91696978,0.75 C9.7453969,0.75 10.4169698,1.42157288 10.4169698,2.25 L10.4169698,3.75 L20.9169698,3.75 C21.7453969,3.75 22.4169698,4.42157288 22.4169698,5.25 L22.4169698,7.5 L20.9169698,7.5 L20.9169698,5.25 Z" id="Combined-Shape" fill="#979797" fill-rule="nonzero"></path>
    </g>
</svg>