<?xml version="1.0" encoding="UTF-8"?>
<svg width="24px" height="24px" viewBox="0 0 24 24" version="1.1" xmlns="http://www.w3.org/2000/svg" xmlns:xlink="http://www.w3.org/1999/xlink">
    <!-- Generator: Sketch 46.2 (44496) - http://www.bohemiancoding.com/sketch -->
    <title>ic_ol_Horizontal More_24</title>
    <desc>Created with Sketch.</desc>
    <defs></defs>
    <g id="Page-1" stroke="none" stroke-width="1" fill="none" fill-rule="evenodd">
        <g id="ic_ol_Horizontal-More_24" fill="#999999">
            <g id="icons/outline/Horizontal-More_32">
                <g id="ic_ol_Horizontal-More" transform="translate(0.000000, 9.750000)">
                    <g id="Horizontal-More">
                        <g id="Outline-v2">
                            <g id="Horizontal-More">
                                <path d="M22,0 C20.8951112,0 20,0.8951112 20,2 C20,3.1048888 20.8951112,4 22,4 C23.1048888,4 24,3.1048888 24,2 C24,0.8951112 23.1048888,0 22,0 Z M2,0 C0.89511112,0 0,0.8951112 0,2 C0,3.1048888 0.89511112,4 2,4 C3.10488888,4 4,3.1048888 4,2 C4,0.8951112 3.10488888,0 2,0 Z M12,0 C10.8951112,0 10,0.8951112 10,2 C10,3.1048888 10.8951112,4 12,4 C13.1048888,4 14,3.1048888 14,2 C14,0.8951112 13.1048888,0 12,0 Z" id="Combined-Shape"></path>
                            </g>
                        </g>
                    </g>
                </g>
            </g>
        </g>
    </g>
</svg>
