<?xml version="1.0" encoding="UTF-8"?>
<svg width="24px" height="24px" viewBox="0 0 24 24" version="1.1" xmlns="http://www.w3.org/2000/svg" xmlns:xlink="http://www.w3.org/1999/xlink">
    <!-- Generator: Sketch 47.1 (45422) - http://www.bohemiancoding.com/sketch -->
    <title>ic_ol_List_view_24</title>
    <desc>Created with Sketch.</desc>
    <defs></defs>
    <g id="Page-1" stroke="none" stroke-width="1" fill="none" fill-rule="evenodd">
        <path d="M4.5,12.75 L4.5,11.25 L24,11.25 L24,12.75 L4.5,12.75 Z M4.5,6.75 L4.5,5.25 L24,5.25 L24,6.75 L4.5,6.75 Z M4.5,18.75 L4.5,17.25 L24,17.25 L24,18.75 L4.5,18.75 Z M0,12.75 L0,11.25 L3,11.25 L3,12.75 L0,12.75 Z M0,6.75 L0,5.25 L3,5.25 L3,6.75 L0,6.75 Z M0,18.75 L0,17.25 L3,17.25 L3,18.75 L0,18.75 Z" id="Combined-Shape" fill="#999999"></path>
    </g>
</svg>