<?xml version="1.0" encoding="UTF-8"?>
<svg width="24px" height="24px" viewBox="0 0 24 24" version="1.1" xmlns="http://www.w3.org/2000/svg" xmlns:xlink="http://www.w3.org/1999/xlink">
    <!-- Generator: Sketch 46.2 (44496) - http://www.bohemiancoding.com/sketch -->
    <title>ic_ol_Vertical More_24</title>
    <desc>Created with Sketch.</desc>
    <defs></defs>
    <g id="Page-1" stroke="none" stroke-width="1" fill="none" fill-rule="evenodd">
        <g id="ic_ol_Vertical-More_24" fill="#999999">
            <g id="icons/outline/Vertical-More_32">
                <g id="ic_ol_Vertical-More" transform="translate(9.750000, 0.000000)">
                    <g id="Vertical-More">
                        <g id="Outline-v2">
                            <g id="Vertical-More">
                                <path d="M4,22 C4,20.8951112 3.1048888,20 2,20 C0.8951112,20 0,20.8951112 0,22 C0,23.1048888 0.8951112,24 2,24 C3.1048888,24 4,23.1048888 4,22 L4,22 Z M4,2 C4,0.89511112 3.1048888,0 2,0 C0.8951112,0 0,0.89511112 0,2 C0,3.10488888 0.8951112,4 2,4 C3.1048888,4 4,3.10488888 4,2 L4,2 Z M4,12 C4,10.8951112 3.1048888,10 2,10 C0.8951112,10 0,10.8951112 0,12 C0,13.1048888 0.8951112,14 2,14 C3.1048888,14 4,13.1048888 4,12 L4,12 Z" id="Combined-Shape"></path>
                            </g>
                        </g>
                    </g>
                </g>
            </g>
        </g>
    </g>
</svg>
