<?xml version="1.0" encoding="UTF-8"?>
<svg width="24px" height="24px" viewBox="0 0 24 24" version="1.1" xmlns="http://www.w3.org/2000/svg" xmlns:xlink="http://www.w3.org/1999/xlink">
    <!-- Generator: Sketch 47 (45396) - http://www.bohemiancoding.com/sketch -->
    <title>ic_ol_volume_up_32</title>
    <desc>Created with Sketch.</desc>
    <defs></defs>
    <g id="Page-1" stroke="none" stroke-width="1" fill="none" fill-rule="evenodd">
        <g id="ic_ol_volume_up_32" fill="#999999">
            <path d="M20.2656115,3 C23.4847151,6.21910362 24.7415974,10.9125249 23.5642646,15.3142646 C22.9862048,17.472708 21.8459951,19.4508393 20.2656115,21.0312229 L19.2049513,19.9705627 C22.0475205,17.1279935 23.1559104,12.9861155 22.1164635,9.10409929 C21.6073466,7.19491098 20.5997194,5.4554283 19.2049513,4.06066017 L20.2656115,3 Z M16.5533009,6.75 C18.4465793,8.64327841 19.1837381,11.4062982 18.494309,13.994309 C18.1548977,15.2671012 17.4866818,16.4232208 16.5533009,17.3566017 L15.4926407,16.2959415 C17.0093847,14.7791975 17.6033544,12.5730243 17.0465078,10.4994337 C16.7707362,9.48119994 16.2351028,8.55312229 15.4926407,7.81066017 L16.5533009,6.75 Z M0,8.30972318 C0,7.48129605 0.671572875,6.80972318 1.5,6.80972318 L3.85463415,6.80972318 L12.3199783,0.885523505 C12.4460261,0.797312986 12.5961522,0.75 12.75,0.75 C13.1642136,0.75 13.5,1.08578644 13.5,1.5 L13.5,22.6194464 C13.5,22.7732942 13.452687,22.9234202 13.3644765,23.049468 C13.1269821,23.388834 12.6593443,23.4714173 12.3199783,23.2339229 L3.85463415,17.3097232 L1.5,17.3097232 C0.671572875,17.3097232 0,16.6381503 0,15.8097232 L0,8.30972318 Z M12,2.94027682 L4.32736674,8.30972318 L1.5,8.30972318 L1.5,15.8097232 L4.32736674,15.8097232 L12,21.1791695 L12,2.94027682 Z"></path>
        </g>
    </g>
</svg>