<?xml version="1.0" encoding="UTF-8"?>
<svg width="24px" height="24px" viewBox="0 0 24 24" version="1.1" xmlns="http://www.w3.org/2000/svg" xmlns:xlink="http://www.w3.org/1999/xlink">
    <!-- Generator: Sketch 47 (45396) - http://www.bohemiancoding.com/sketch -->
    <title>ic_ol_volume_down_32</title>
    <desc>Created with Sketch.</desc>
    <defs></defs>
    <g id="Page-1" stroke="none" stroke-width="1" fill="none" fill-rule="evenodd">
        <g id="ic_ol_volume_down_32" fill="#999999">
            <path d="M19.5533009,6.75 C21.4465793,8.64327841 22.1837381,11.4062982 21.494309,13.994309 C21.1548977,15.2671012 20.4866818,16.4232208 19.5533009,17.3566017 L18.4926407,16.2959415 C20.0093847,14.7791975 20.6033544,12.5730243 20.0465078,10.4994337 C19.7707362,9.48119994 19.2351028,8.55312229 18.4926407,7.81066017 L19.5533009,6.75 Z M3,8.30972318 C3,7.48129605 3.67157288,6.80972318 4.5,6.80972318 L6.85463415,6.80972318 L15.3199783,0.885523505 C15.4460261,0.797312986 15.5961522,0.75 15.75,0.75 C16.1642136,0.75 16.5,1.08578644 16.5,1.5 L16.5,22.6194464 C16.5,22.7732942 16.452687,22.9234202 16.3644765,23.049468 C16.1269821,23.388834 15.6593443,23.4714173 15.3199783,23.2339229 L6.85463415,17.3097232 L4.5,17.3097232 C3.67157288,17.3097232 3,16.6381503 3,15.8097232 L3,8.30972318 Z M15,2.94027682 L7.32736674,8.30972318 L4.5,8.30972318 L4.5,15.8097232 L7.32736674,15.8097232 L15,21.1791695 L15,2.94027682 Z"></path>
        </g>
    </g>
</svg>