<?xml version="1.0" encoding="UTF-8"?>
<svg width="24px" height="24px" viewBox="0 0 24 24" version="1.1" xmlns="http://www.w3.org/2000/svg" xmlns:xlink="http://www.w3.org/1999/xlink">
    <!-- Generator: Sketch 47 (45396) - http://www.bohemiancoding.com/sketch -->
    <title>ic_ol_volume_off_32</title>
    <desc>Created with Sketch.</desc>
    <defs></defs>
    <g id="Page-1" stroke="none" stroke-width="1" fill="none" fill-rule="evenodd">
        <g id="ic_ol_volume_off_32" fill="#999999">
            <path d="M5.25,8.30972318 C5.25,7.48129605 5.92157288,6.80972318 6.75,6.80972318 L9.10463415,6.80972318 L17.5699783,0.885523505 C17.6960261,0.797312986 17.8461522,0.75 18,0.75 C18.4142136,0.75 18.75,1.08578644 18.75,1.5 L18.75,22.6194464 C18.75,22.7732942 18.702687,22.9234202 18.6144765,23.049468 C18.3769821,23.388834 17.9093443,23.4714173 17.5699783,23.2339229 L9.10463415,17.3097232 L6.75,17.3097232 C5.92157288,17.3097232 5.25,16.6381503 5.25,15.8097232 L5.25,8.30972318 Z M17.25,2.94027682 L9.57736674,8.30972318 L6.75,8.30972318 L6.75,15.8097232 L9.57736674,15.8097232 L17.25,21.1791695 L17.25,2.94027682 Z"></path>
        </g>
    </g>
</svg>